<?xml version="1.0" encoding="UTF-8" standalone="no"?>
<!DOCTYPE svg PUBLIC "-//W3C//DTD SVG 1.1//EN" "http://www.w3.org/Graphics/SVG/1.1/DTD/svg11.dtd">
<svg xmlns="http://www.w3.org/2000/svg" version="1.1" viewBox="0 0 952 929">
<g stroke-width="2.00" fill="none" stroke-linecap="butt">
<path stroke="#f2b9ce" vector-effect="non-scaling-stroke" d="
  M 292.36 100.94
  Q 279.77 96.73 269.50 102.09
  C 251.29 111.61 250.08 137.92 267.55 148.90
  Q 271.46 151.36 282.44 154.26
  Q 307.44 160.88 332.46 167.45
  A 1.00 0.99 -75.8 0 0 333.68 166.72
  Q 340.42 139.13 347.13 111.53
  Q 349.73 100.80 345.90 92.42
  C 335.45 69.58 302.44 69.75 295.30 95.28
  Q 294.58 97.87 293.61 100.36
  A 1.00 1.00 0.0 0 1 292.36 100.94"
/>
<path stroke="#f2b9ce" vector-effect="non-scaling-stroke" d="
  M 661.44 91.08
  C 649.61 65.68 612.72 73.82 610.06 100.62
  Q 609.62 105.01 611.60 113.38
  Q 617.93 140.08 624.51 166.72
  A 1.01 1.01 0.0 0 0 625.74 167.45
  Q 653.63 160.14 681.50 152.75
  Q 692.87 149.73 698.67 140.43
  C 709.97 122.28 697.50 98.20 675.46 99.19
  Q 670.44 99.41 665.55 100.95
  A 1.00 1.00 0.0 0 1 664.28 100.24
  Q 662.65 93.69 661.44 91.08"
/>
<path stroke="#ade7f3" vector-effect="non-scaling-stroke" d="
  M 356.49 700.51
  Q 338.31 705.97 334.63 722.56
  C 332.08 734.05 336.23 745.63 345.75 752.49
  Q 351.81 756.86 360.76 758.20"
/>
<path stroke="#a9e0eb" vector-effect="non-scaling-stroke" d="
  M 360.76 758.20
  C 342.51 759.84 329.81 776.70 335.00 794.74
  Q 340.59 814.19 362.77 816.26"
/>
<path stroke="#f2b9ce" vector-effect="non-scaling-stroke" d="
  M 362.77 816.26
  Q 362.48 832.72 363.04 838.20
  C 367.20 879.19 397.57 911.88 438.53 917.02
  Q 444.37 917.75 458.50 917.75
  Q 483.88 917.75 509.25 917.76
  C 552.11 917.78 588.93 885.09 594.62 842.21
  C 595.66 834.34 595.24 824.89 595.25 816.29"
/>
<path stroke="#a9e0eb" vector-effect="non-scaling-stroke" d="
  M 595.25 816.29
  C 632.35 814.28 634.37 762.48 597.99 758.19"
/>
<path stroke="#ade7f3" vector-effect="non-scaling-stroke" d="
  M 597.99 758.19
  Q 607.11 756.68 613.57 751.57
  C 621.72 745.11 625.35 735.30 623.92 724.92
  Q 621.36 706.43 601.75 700.71"
/>
<path stroke="#f3f3f4" vector-effect="non-scaling-stroke" d="
  M 601.75 700.71
  Q 614.58 647.78 648.76 605.51
  C 656.19 596.33 666.67 585.00 673.48 576.25
  C 717.78 519.40 735.44 446.84 721.50 376.00
  C 700.53 269.39 610.04 187.56 500.99 178.29
  C 417.35 171.18 336.92 205.93 285.08 271.58
  C 213.92 361.68 214.53 488.69 286.31 578.19
  C 295.41 589.54 306.24 600.32 314.58 611.26
  Q 340.84 645.73 353.45 688.52
  Q 355.82 696.54 356.49 700.51"
/>
<path stroke="#a2dce7" vector-effect="non-scaling-stroke" d="
  M 601.75 700.71
  Q 598.25 699.97 596.25 700.00
  Q 582.52 700.19 568.79 699.75"
/>
<path stroke="#98c5cd" vector-effect="non-scaling-stroke" d="
  M 568.79 699.75
  L 607.71 439.25"
/>
<path stroke="#d7a5b7" vector-effect="non-scaling-stroke" d="
  M 607.71 439.25
  Q 624.82 427.71 629.97 408.84
  C 641.10 368.02 601.05 333.72 562.47 349.94
  Q 559.03 351.39 550.43 356.50
  A 1.01 1.00 -30.4 0 1 549.04 356.14
  Q 547.24 352.94 545.46 349.74
  C 535.65 332.15 519.72 321.70 499.26 322.58
  C 475.95 323.57 457.38 340.52 452.42 363.41"
/>
<path stroke="#e7aec3" vector-effect="non-scaling-stroke" d="
  M 452.42 363.41
  C 426.54 360.16 405.49 375.93 399.24 400.74
  Q 398.37 404.23 397.48 407.77
  A 1.00 0.99 -75.2 0 1 396.25 408.49
  Q 390.99 407.06 385.67 405.90
  C 359.81 400.25 335.34 416.44 329.71 442.19
  C 324.52 465.87 337.40 488.80 359.59 498.42"
/>
<path stroke="#98c5cd" vector-effect="non-scaling-stroke" d="
  M 359.59 498.42
  Q 359.49 499.49 359.75 501.25
  Q 374.60 600.38 389.46 699.50"
/>
<path stroke="#a2dce7" vector-effect="non-scaling-stroke" d="
  M 389.46 699.50
  Q 389.28 699.57 389.13 699.73
  A 0.80 0.77 21.0 0 1 388.52 699.99
  Q 372.50 699.66 356.49 700.51"
/>
<path stroke="#52b9cc" vector-effect="non-scaling-stroke" d="
  M 568.79 699.75
  Q 554.56 700.32 540.33 699.83
  A 1.00 0.97 61.8 0 1 539.83 699.67
  L 539.50 699.46"
/>
<path stroke="#98c5cd" vector-effect="non-scaling-stroke" d="
  M 539.50 699.46
  L 575.63 457.55"
/>
<path stroke="#86829c" vector-effect="non-scaling-stroke" d="
  M 607.71 439.25
  L 575.63 457.55"
/>
<path stroke="#d7a5b7" vector-effect="non-scaling-stroke" d="
  M 575.63 457.55
  L 510.95 493.94
  A 1.00 0.99 -28.8 0 1 509.58 493.55
  L 486.59 451.42"
/>
<path stroke="#d66b92" vector-effect="non-scaling-stroke" d="
  M 486.59 451.42
  Q 491.99 428.93 493.00 424.49
  C 499.59 395.41 481.73 368.54 452.42 363.41"
/>
<path stroke="#e7aec3" vector-effect="non-scaling-stroke" d="
  M 486.59 451.42
  L 468.49 526.02
  A 1.00 1.00 0.0 0 1 467.26 526.75
  L 390.00 506.79"
/>
<path stroke="#978aa8" vector-effect="non-scaling-stroke" d="
  M 390.00 506.79
  L 359.59 498.42"
/>
<path stroke="#59c9de" vector-effect="non-scaling-stroke" d="
  M 597.99 758.19
  L 360.76 758.20"
/>
<path stroke="#52b9cc" vector-effect="non-scaling-stroke" d="
  M 419.00 699.96
  L 390.39 700.00
  A 1.01 0.99 66.0 0 1 389.71 699.73
  L 389.46 699.50"
/>
<path stroke="#a2dce7" vector-effect="non-scaling-stroke" d="
  M 539.50 699.46
  L 539.22 699.70
  A 1.00 1.00 0.0 0 1 538.57 699.94
  L 419.00 699.96"
/>
<path stroke="#98c5cd" vector-effect="non-scaling-stroke" d="
  M 419.00 699.96
  L 390.00 506.79"
/>
<path stroke="#9e9aba" vector-effect="non-scaling-stroke" d="
  M 595.25 816.29
  L 362.77 816.26"
/>
<path stroke="#f2b9ce" vector-effect="non-scaling-stroke" d="
  M 95.17 362.24
  Q 92.48 361.70 89.79 361.11
  C 76.60 358.18 64.10 365.14 59.51 377.19
  C 53.45 393.06 62.43 409.84 78.69 414.11
  Q 106.69 421.47 134.88 428.64
  A 1.00 0.99 -75.9 0 0 136.09 427.91
  Q 142.98 400.25 149.68 372.55
  C 155.37 349.08 132.13 328.02 109.91 340.81
  Q 98.88 347.16 96.35 361.43
  A 1.00 1.00 0.0 0 1 95.17 362.24"
/>
<path stroke="#f2b9ce" vector-effect="non-scaling-stroke" d="
  M 897.56 374.85
  C 891.20 361.72 876.04 357.43 862.98 362.59
  A 1.00 0.99 74.9 0 1 861.63 361.81
  C 859.26 346.60 847.73 335.81 832.25 337.14
  C 818.93 338.28 808.60 349.47 807.53 362.52
  Q 807.20 366.60 808.69 372.85
  Q 815.26 400.28 821.98 427.99
  A 1.01 1.00 76.0 0 0 823.20 428.73
  Q 850.96 421.53 878.99 414.21
  C 896.61 409.60 905.54 391.33 897.56 374.85"
/>
<path stroke="#f2b9ce" vector-effect="non-scaling-stroke" d="
  M 191.00 667.27
  Q 188.55 666.83 186.14 666.23
  C 156.49 658.84 141.00 698.99 165.54 715.18
  Q 169.42 717.75 179.14 720.31
  Q 204.84 727.08 230.72 733.71
  A 1.00 1.00 0.0 0 0 231.94 732.97
  Q 237.65 709.10 243.50 685.15
  Q 246.36 673.45 246.12 668.15
  C 244.84 640.28 206.10 631.17 194.68 657.94
  Q 193.53 660.62 192.15 666.52
  A 1.00 1.00 0.0 0 1 191.00 667.27"
/>
<path stroke="#f2b9ce" vector-effect="non-scaling-stroke" d="
  M 727.41 733.63
  Q 753.13 727.20 778.73 720.37
  Q 788.57 717.74 792.58 715.10
  C 817.64 698.59 800.77 658.25 771.43 666.31
  Q 769.36 666.88 767.20 667.30
  A 1.00 0.99 77.7 0 1 766.04 666.55
  Q 764.47 660.03 763.42 657.80
  C 751.20 631.70 714.02 639.97 711.78 667.45
  Q 711.44 671.64 713.06 678.39
  Q 719.60 705.66 726.19 732.90
  A 1.00 1.00 0.0 0 0 727.41 733.63"
/>
</g>
<path fill="#fdfeff" d="
  M 0.00 0.00
  L 952.00 0.00
  L 952.00 929.00
  L 0.00 929.00
  L 0.00 0.00
  Z
  M 292.36 100.94
  Q 279.77 96.73 269.50 102.09
  C 251.29 111.61 250.08 137.92 267.55 148.90
  Q 271.46 151.36 282.44 154.26
  Q 307.44 160.88 332.46 167.45
  A 1.00 0.99 -75.8 0 0 333.68 166.72
  Q 340.42 139.13 347.13 111.53
  Q 349.73 100.80 345.90 92.42
  C 335.45 69.58 302.44 69.75 295.30 95.28
  Q 294.58 97.87 293.61 100.36
  A 1.00 1.00 0.0 0 1 292.36 100.94
  Z
  M 661.44 91.08
  C 649.61 65.68 612.72 73.82 610.06 100.62
  Q 609.62 105.01 611.60 113.38
  Q 617.93 140.08 624.51 166.72
  A 1.01 1.01 0.0 0 0 625.74 167.45
  Q 653.63 160.14 681.50 152.75
  Q 692.87 149.73 698.67 140.43
  C 709.97 122.28 697.50 98.20 675.46 99.19
  Q 670.44 99.41 665.55 100.95
  A 1.00 1.00 0.0 0 1 664.28 100.24
  Q 662.65 93.69 661.44 91.08
  Z
  M 356.49 700.51
  Q 338.31 705.97 334.63 722.56
  C 332.08 734.05 336.23 745.63 345.75 752.49
  Q 351.81 756.86 360.76 758.20
  C 342.51 759.84 329.81 776.70 335.00 794.74
  Q 340.59 814.19 362.77 816.26
  Q 362.48 832.72 363.04 838.20
  C 367.20 879.19 397.57 911.88 438.53 917.02
  Q 444.37 917.75 458.50 917.75
  Q 483.88 917.75 509.25 917.76
  C 552.11 917.78 588.93 885.09 594.62 842.21
  C 595.66 834.34 595.24 824.89 595.25 816.29
  C 632.35 814.28 634.37 762.48 597.99 758.19
  Q 607.11 756.68 613.57 751.57
  C 621.72 745.11 625.35 735.30 623.92 724.92
  Q 621.36 706.43 601.75 700.71
  Q 614.58 647.78 648.76 605.51
  C 656.19 596.33 666.67 585.00 673.48 576.25
  C 717.78 519.40 735.44 446.84 721.50 376.00
  C 700.53 269.39 610.04 187.56 500.99 178.29
  C 417.35 171.18 336.92 205.93 285.08 271.58
  C 213.92 361.68 214.53 488.69 286.31 578.19
  C 295.41 589.54 306.24 600.32 314.58 611.26
  Q 340.84 645.73 353.45 688.52
  Q 355.82 696.54 356.49 700.51
  Z
  M 95.17 362.24
  Q 92.48 361.70 89.79 361.11
  C 76.60 358.18 64.10 365.14 59.51 377.19
  C 53.45 393.06 62.43 409.84 78.69 414.11
  Q 106.69 421.47 134.88 428.64
  A 1.00 0.99 -75.9 0 0 136.09 427.91
  Q 142.98 400.25 149.68 372.55
  C 155.37 349.08 132.13 328.02 109.91 340.81
  Q 98.88 347.16 96.35 361.43
  A 1.00 1.00 0.0 0 1 95.17 362.24
  Z
  M 897.56 374.85
  C 891.20 361.72 876.04 357.43 862.98 362.59
  A 1.00 0.99 74.9 0 1 861.63 361.81
  C 859.26 346.60 847.73 335.81 832.25 337.14
  C 818.93 338.28 808.60 349.47 807.53 362.52
  Q 807.20 366.60 808.69 372.85
  Q 815.26 400.28 821.98 427.99
  A 1.01 1.00 76.0 0 0 823.20 428.73
  Q 850.96 421.53 878.99 414.21
  C 896.61 409.60 905.54 391.33 897.56 374.85
  Z
  M 191.00 667.27
  Q 188.55 666.83 186.14 666.23
  C 156.49 658.84 141.00 698.99 165.54 715.18
  Q 169.42 717.75 179.14 720.31
  Q 204.84 727.08 230.72 733.71
  A 1.00 1.00 0.0 0 0 231.94 732.97
  Q 237.65 709.10 243.50 685.15
  Q 246.36 673.45 246.12 668.15
  C 244.84 640.28 206.10 631.17 194.68 657.94
  Q 193.53 660.62 192.15 666.52
  A 1.00 1.00 0.0 0 1 191.00 667.27
  Z
  M 727.41 733.63
  Q 753.13 727.20 778.73 720.37
  Q 788.57 717.74 792.58 715.10
  C 817.64 698.59 800.77 658.25 771.43 666.31
  Q 769.36 666.88 767.20 667.30
  A 1.00 0.99 77.7 0 1 766.04 666.55
  Q 764.47 660.03 763.42 657.80
  C 751.20 631.70 714.02 639.97 711.78 667.45
  Q 711.44 671.64 713.06 678.39
  Q 719.60 705.66 726.19 732.90
  A 1.00 1.00 0.0 0 0 727.41 733.63
  Z"
/>
<path fill="#e6739d" d="
  M 293.61 100.36
  Q 294.58 97.87 295.30 95.28
  C 302.44 69.75 335.45 69.58 345.90 92.42
  Q 349.73 100.80 347.13 111.53
  Q 340.42 139.13 333.68 166.72
  A 1.00 0.99 -75.8 0 1 332.46 167.45
  Q 307.44 160.88 282.44 154.26
  Q 271.46 151.36 267.55 148.90
  C 250.08 137.92 251.29 111.61 269.50 102.09
  Q 279.77 96.73 292.36 100.94
  A 1.00 1.00 0.0 0 0 293.61 100.36
  Z"
/>
<path fill="#e6739d" d="
  M 610.06 100.62
  C 612.72 73.82 649.61 65.68 661.44 91.08
  Q 662.65 93.69 664.28 100.24
  A 1.00 1.00 0.0 0 0 665.55 100.95
  Q 670.44 99.41 675.46 99.19
  C 697.50 98.20 709.97 122.28 698.67 140.43
  Q 692.87 149.73 681.50 152.75
  Q 653.63 160.14 625.74 167.45
  A 1.01 1.01 0.0 0 1 624.51 166.72
  Q 617.93 140.08 611.60 113.38
  Q 609.62 105.01 610.06 100.62
  Z"
/>
<path fill="#e8e8e8" d="
  M 601.75 700.71
  Q 598.25 699.97 596.25 700.00
  Q 582.52 700.19 568.79 699.75
  L 607.71 439.25
  Q 624.82 427.71 629.97 408.84
  C 641.10 368.02 601.05 333.72 562.47 349.94
  Q 559.03 351.39 550.43 356.50
  A 1.01 1.00 -30.4 0 1 549.04 356.14
  Q 547.24 352.94 545.46 349.74
  C 535.65 332.15 519.72 321.70 499.26 322.58
  C 475.95 323.57 457.38 340.52 452.42 363.41
  C 426.54 360.16 405.49 375.93 399.24 400.74
  Q 398.37 404.23 397.48 407.77
  A 1.00 0.99 -75.2 0 1 396.25 408.49
  Q 390.99 407.06 385.67 405.90
  C 359.81 400.25 335.34 416.44 329.71 442.19
  C 324.52 465.87 337.40 488.80 359.59 498.42
  Q 359.49 499.49 359.75 501.25
  Q 374.60 600.38 389.46 699.50
  Q 389.28 699.57 389.13 699.73
  A 0.80 0.77 21.0 0 1 388.52 699.99
  Q 372.50 699.66 356.49 700.51
  Q 355.82 696.54 353.45 688.52
  Q 340.84 645.73 314.58 611.26
  C 306.24 600.32 295.41 589.54 286.31 578.19
  C 214.53 488.69 213.92 361.68 285.08 271.58
  C 336.92 205.93 417.35 171.18 500.99 178.29
  C 610.04 187.56 700.53 269.39 721.50 376.00
  C 735.44 446.84 717.78 519.40 673.48 576.25
  C 666.67 585.00 656.19 596.33 648.76 605.51
  Q 614.58 647.78 601.75 700.71
  Z"
/>
<path fill="#c56286" d="
  M 607.71 439.25
  L 575.63 457.55
  L 510.95 493.94
  A 1.00 0.99 -28.8 0 1 509.58 493.55
  L 486.59 451.42
  Q 491.99 428.93 493.00 424.49
  C 499.59 395.41 481.73 368.54 452.42 363.41
  C 457.38 340.52 475.95 323.57 499.26 322.58
  C 519.72 321.70 535.65 332.15 545.46 349.74
  Q 547.24 352.94 549.04 356.14
  A 1.01 1.00 -30.4 0 0 550.43 356.50
  Q 559.03 351.39 562.47 349.94
  C 601.05 333.72 641.10 368.02 629.97 408.84
  Q 624.82 427.71 607.71 439.25
  Z"
/>
<path fill="#e6739d" d="
  M 96.35 361.43
  Q 98.88 347.16 109.91 340.81
  C 132.13 328.02 155.37 349.08 149.68 372.55
  Q 142.98 400.25 136.09 427.91
  A 1.00 0.99 -75.9 0 1 134.88 428.64
  Q 106.69 421.47 78.69 414.11
  C 62.43 409.84 53.45 393.06 59.51 377.19
  C 64.10 365.14 76.60 358.18 89.79 361.11
  Q 92.48 361.70 95.17 362.24
  A 1.00 1.00 0.0 0 0 96.35 361.43
  Z"
/>
<path fill="#e6739d" d="
  M 862.98 362.59
  C 876.04 357.43 891.20 361.72 897.56 374.85
  C 905.54 391.33 896.61 409.60 878.99 414.21
  Q 850.96 421.53 823.20 428.73
  A 1.01 1.00 76.0 0 1 821.98 427.99
  Q 815.26 400.28 808.69 372.85
  Q 807.20 366.60 807.53 362.52
  C 808.60 349.47 818.93 338.28 832.25 337.14
  C 847.73 335.81 859.26 346.60 861.63 361.81
  A 1.00 0.99 74.9 0 0 862.98 362.59
  Z"
/>
<path fill="#e6739d" d="
  M 452.42 363.41
  C 481.73 368.54 499.59 395.41 493.00 424.49
  Q 491.99 428.93 486.59 451.42
  L 468.49 526.02
  A 1.00 1.00 0.0 0 1 467.26 526.75
  L 390.00 506.79
  L 359.59 498.42
  C 337.40 488.80 324.52 465.87 329.71 442.19
  C 335.34 416.44 359.81 400.25 385.67 405.90
  Q 390.99 407.06 396.25 408.49
  A 1.00 0.99 -75.2 0 0 397.48 407.77
  Q 398.37 404.23 399.24 400.74
  C 405.49 375.93 426.54 360.16 452.42 363.41
  Z"
/>
<path fill="#47a1b2" d="
  M 607.71 439.25
  L 568.79 699.75
  Q 554.56 700.32 540.33 699.83
  A 1.00 0.97 61.8 0 1 539.83 699.67
  L 539.50 699.46
  L 575.63 457.55
  L 607.71 439.25
  Z"
/>
<path fill="#e8e8e8" d="
  M 486.59 451.42
  L 509.58 493.55
  A 1.00 0.99 -28.8 0 0 510.95 493.94
  L 575.63 457.55
  L 539.50 699.46
  L 539.22 699.70
  A 1.00 1.00 0.0 0 1 538.57 699.94
  L 419.00 699.96
  L 390.00 506.79
  L 467.26 526.75
  A 1.00 1.00 0.0 0 0 468.49 526.02
  L 486.59 451.42
  Z"
/>
<path fill="#47a1b2" d="
  M 359.59 498.42
  L 390.00 506.79
  L 419.00 699.96
  L 390.39 700.00
  A 1.01 0.99 66.0 0 1 389.71 699.73
  L 389.46 699.50
  Q 374.60 600.38 359.75 501.25
  Q 359.49 499.49 359.59 498.42
  Z"
/>
<path fill="#e6739d" d="
  M 192.15 666.52
  Q 193.53 660.62 194.68 657.94
  C 206.10 631.17 244.84 640.28 246.12 668.15
  Q 246.36 673.45 243.50 685.15
  Q 237.65 709.10 231.94 732.97
  A 1.00 1.00 0.0 0 1 230.72 733.71
  Q 204.84 727.08 179.14 720.31
  Q 169.42 717.75 165.54 715.18
  C 141.00 698.99 156.49 658.84 186.14 666.23
  Q 188.55 666.83 191.00 667.27
  A 1.00 1.00 0.0 0 0 192.15 666.52
  Z"
/>
<path fill="#e6739d" d="
  M 727.41 733.63
  A 1.00 1.00 0.0 0 1 726.19 732.90
  Q 719.60 705.66 713.06 678.39
  Q 711.44 671.64 711.78 667.45
  C 714.02 639.97 751.20 631.70 763.42 657.80
  Q 764.47 660.03 766.04 666.55
  A 1.00 0.99 77.7 0 0 767.20 667.30
  Q 769.36 666.88 771.43 666.31
  C 800.77 658.25 817.64 698.59 792.58 715.10
  Q 788.57 717.74 778.73 720.37
  Q 753.13 727.20 727.41 733.63
  Z"
/>
<path fill="#5cd0e6" d="
  M 389.46 699.50
  L 389.71 699.73
  A 1.01 0.99 66.0 0 0 390.39 700.00
  L 419.00 699.96
  L 538.57 699.94
  A 1.00 1.00 0.0 0 0 539.22 699.70
  L 539.50 699.46
  L 539.83 699.67
  A 1.00 0.97 61.8 0 0 540.33 699.83
  Q 554.56 700.32 568.79 699.75
  Q 582.52 700.19 596.25 700.00
  Q 598.25 699.97 601.75 700.71
  Q 621.36 706.43 623.92 724.92
  C 625.35 735.30 621.72 745.11 613.57 751.57
  Q 607.11 756.68 597.99 758.19
  L 360.76 758.20
  Q 351.81 756.86 345.75 752.49
  C 336.23 745.63 332.08 734.05 334.63 722.56
  Q 338.31 705.97 356.49 700.51
  Q 372.50 699.66 388.52 699.99
  A 0.80 0.77 21.0 0 0 389.13 699.73
  Q 389.28 699.57 389.46 699.50
  Z"
/>
<path fill="#55c1d6" d="
  M 597.99 758.19
  C 634.37 762.48 632.35 814.28 595.25 816.29
  L 362.77 816.26
  Q 340.59 814.19 335.00 794.74
  C 329.81 776.70 342.51 759.84 360.76 758.20
  L 597.99 758.19
  Z"
/>
<path fill="#e6739d" d="
  M 595.25 816.29
  C 595.24 824.89 595.66 834.34 594.62 842.21
  C 588.93 885.09 552.11 917.78 509.25 917.76
  Q 483.88 917.75 458.50 917.75
  Q 444.37 917.75 438.53 917.02
  C 397.57 911.88 367.20 879.19 363.04 838.20
  Q 362.48 832.72 362.77 816.26
  L 595.25 816.29
  Z"
/>
</svg>
